{"title":"Naruto Shippuden 94 DVBrip xvid audio castellano","uid":6211831,"size":199245824,"categoryP":"video","categoryS":"tv_shows","magnet":"?xt=urn:btih:992a66bdc972b3a2ab317bec7d46ad2460dccfec&amp;dn=Naruto+Shippuden+94+DVBrip+xvid+audio+castellano&amp;tr=udp%3A%2F%2Ftracker.openbittorrent.com%3A80&amp;tr=udp%3A%2F%2Fopen.demonii.com%3A1337&amp;tr=udp%3A%2F%2Ftracker.coppersurfer.tk%3A6969&amp;tr=udp%3A%2F%2Fexodus.desync.com%3A6969","seeders":0,"leechers":0,"uploader":null,"files":1,"time":1299012549,"description":"File size                        : 190 MiB\nDuration                         : 20mn 3s\nOverall bit rate                 : 1 325 Kbps\n\nVideo\nID                               : 0\nFormat                           : MPEG-4 Visual\nFormat profile                   : Advanced Simple@L5\nFormat settings, BVOP            : Yes\nFormat settings, QPel            : No\nFormat settings, GMC             : No warppoints\nFormat settings, Matrix          : Custom\nCodec ID                         : XVID\nCodec ID/Hint                    : XviD\nDuration                         : 20mn 3s\nBit rate                         : 1 205 Kbps\nWidth                            : 704 pixels\nHeight                           : 400 pixels\nDisplay aspect ratio             : 16:9\nFrame rate                       : 25.000 fps\nColor space                      : YUV\nChroma subsampling               : 4:2:0\nBit depth                        : 8 bits\nScan type                        : Progressive\nCompression mode                 : Lossy\nBits/(Pixel*Frame)               : 0.171\nStream size                      : 173 MiB (91%)\nWriting library                  : XviD 62\n\nAudio\nID                               : 1\nFormat                           : MPEG Audio\nFormat version                   : Version 1\nFormat profile                   : Layer 3\nMode                             : Joint stereo\nMode extension                   : MS Stereo\nCodec ID                         : 55\nCodec ID/Hint                    : MP3\nDuration                         : 20mn 3s\nBit rate mode                    : Variable\nBit rate                         : 107 Kbps\nNominal bit rate                 : 128 Kbps\nChannel(s)                       : 2 channels\nSampling rate                    : 48.0 KHz\nCompression mode                 : Lossy\nStream size                      : 15.3 MiB (8%)\nAlignment                        : Aligned on interleaves\nInterleave, duration             : 24 ms (0.60 video frame)\nInterleave, preload duration     : 363 ms\nWriting library                  : LAME3.98r\nEncoding settings                : -m j -V 4 -q 2 -lowpass 17 --abr 128\n\n","torrent":{"xt":"urn:btih:992a66bdc972b3a2ab317bec7d46ad2460dccfec","amp;dn":"Naruto+Shippuden+94+DVBrip+xvid+audio+castellano","amp;tr":["udp%3A%2F%2Ftracker.openbittorrent.com%3A80","udp%3A%2F%2Fopen.demonii.com%3A1337","udp%3A%2F%2Ftracker.coppersurfer.tk%3A6969","udp%3A%2F%2Fexodus.desync.com%3A6969"],"infoHash":"992a66bdc972b3a2ab317bec7d46ad2460dccfec","infoHashBuffer":{"type":"Buffer","data":[153,42,102,189,201,114,179,162,171,49,123,236,125,70,173,36,96,220,207,236]},"announce":[],"urlList":[]}}